HIERARCHY
ROOT ROOT
{
	OFFSET 0.000000 56.020000 -5.659234
	CHANNELS 6 Xposition Yposition Zposition Xrotation Yrotation Zrotation 
	JOINT C_spine0001_bind_JNT
	{
		OFFSET 0.000000 1.618999 0.000000
		CHANNELS 3 Xrotation Yrotation Zrotation
		JOINT C_spine0002_bind_JNT
		{
			OFFSET 0.000000 4.942001 0.000001
			CHANNELS 3 Xrotation Yrotation Zrotation
			JOINT C_spine0003_bind_JNT
			{
				OFFSET 0.000000 4.942001 -0.000000
				CHANNELS 3 Xrotation Yrotation Zrotation
				JOINT C_neck0001_bind_JNT
				{
					OFFSET 0.000000 17.026009 -0.000000
					CHANNELS 3 Xrotation Yrotation Zrotation
					JOINT C_neck0002_bind_JNT
					{
						OFFSET 0.000000 3.249985 0.000000
						CHANNELS 3 Xrotation Yrotation Zrotation
						JOINT C_head_bind_JNT
						{
							OFFSET 0.000000 5.278008 0.000000
							CHANNELS 3 Xrotation Yrotation Zrotation
							End Site
							{
								OFFSET 0.000000 0.000000 0.000000
							}
						}
					}
				}
				JOINT L_clavicle_bind_JNT
				{
					OFFSET 4.590000 12.067001 0.834000
					CHANNELS 3 Xrotation Yrotation Zrotation
					JOINT L_armUpper0001_bind_JNT
					{
						OFFSET 7.812635 0.512001 -3.452945
						CHANNELS 3 Xrotation Yrotation Zrotation
						JOINT L_armLower0001_bind_JNT
						{
							OFFSET 15.265892 -6.552116 -0.058157
							CHANNELS 3 Xrotation Yrotation Zrotation
							JOINT L_hand0001_bind_JNT
							{
								OFFSET 14.747667 -6.369995 5.049225
								CHANNELS 3 Xrotation Yrotation Zrotation
								End Site
								{
									OFFSET 0.000000 0.000000 0.000000
								}
							}
						}
					}
				}
				JOINT R_clavicle_bind_JNT
				{
					OFFSET -4.590000 12.067001 0.834000
					CHANNELS 3 Xrotation Yrotation Zrotation
					JOINT R_armUpper0001_bind_JNT
					{
						OFFSET -7.812635 0.512001 -3.452945
						CHANNELS 3 Xrotation Yrotation Zrotation
						JOINT R_armLower0001_bind_JNT
						{
							OFFSET -15.265890 -6.552124 -0.058160
							CHANNELS 3 Xrotation Yrotation Zrotation
							JOINT R_hand0001_bind_JNT
							{
								OFFSET -14.746784 -6.369629 5.048937
								CHANNELS 3 Xrotation Yrotation Zrotation
								End Site
								{
									OFFSET 0.000000 0.000000 0.000000
								}
							}
						}
					}
				}
			}
		}
	}
	JOINT C_pelvis0001_bind_JNT
	{
		OFFSET -0.000000 0.000000 0.000000
		CHANNELS 3 Xrotation Yrotation Zrotation
		JOINT L_legUpper0001_bind_JNT
		{
			OFFSET 6.599999 -6.027000 0.539000
			CHANNELS 3 Xrotation Yrotation Zrotation
			JOINT L_legLower0001_bind_JNT
			{
				OFFSET -0.140713 -19.187443 0.040261
				CHANNELS 3 Xrotation Yrotation Zrotation
				JOINT L_foot0001_bind_JNT
				{
					OFFSET -0.132215 -18.028637 -1.138370
					CHANNELS 3 Xrotation Yrotation Zrotation
					JOINT L_foot0002_bind_JNT
					{
						OFFSET 0.007014 -4.693133 9.886524
						CHANNELS 3 Xrotation Yrotation Zrotation
						End Site
						{
							OFFSET 0.000000 0.000000 0.000000
						}
					}
				}
			}
		}
		JOINT R_legUpper0001_bind_JNT
		{
			OFFSET -6.599999 -6.027000 0.539000
			CHANNELS 3 Xrotation Yrotation Zrotation
			JOINT R_legLower0001_bind_JNT
			{
				OFFSET 0.140710 -19.187164 0.040550
				CHANNELS 3 Xrotation Yrotation Zrotation
				JOINT R_foot0001_bind_JNT
				{
					OFFSET 0.132215 -18.028633 -1.138362
					CHANNELS 3 Xrotation Yrotation Zrotation
					JOINT R_foot0002_bind_JNT
					{
						OFFSET -0.007014 -4.693128 9.886505
						CHANNELS 3 Xrotation Yrotation Zrotation
						End Site
						{
							OFFSET 0.000000 0.000000 0.000000
						}
					}
				}
			}
		}
	}
}
MOTION
Frames: 10
Frame Time: 0.033333
0.000000 48.448784 0.000000 0.011502 -8.048897 -0.039916 -0.231591 8.426679 0.273679 -3.622552 0.271702 0.190516 3.604479 0.067253 -0.418323 14.621158 1.019843 -0.177442 -0.021927 0.397982 -0.045655 -9.498277 2.265587 -0.142082 13.879630 3.208325 20.061571 -27.031910 -7.915714 -78.474800 15.303769 8.976178 -10.752645 -7.697276 -14.509246 -27.058395 14.240349 -2.684676 -19.540270 -28.830616 6.822812 82.750809 8.821332 -13.593776 8.528897 -4.327253 15.535196 24.539005 1.271454 7.718976 -1.064377 -0.273046 0.081837 1.517204 5.036240 2.691800 -1.302485 -5.235707 5.025859 -0.823808 -1.173445 0.442225 0.519854 0.400105 3.062122 -0.334202 2.464422 -1.826606 1.039807 -2.550952 -10.156906 -0.459678 -1.826829 -1.043877 -0.146307 
-0.084246 48.450901 0.088943 0.008802 -7.558955 -0.013045 -0.251087 7.777952 0.201919 -3.868995 0.253089 0.274240 3.601724 0.189552 -0.733513 14.713910 1.285466 -0.165883 -0.048587 -0.126057 -0.126580 -9.628531 2.239695 0.266190 14.053697 3.483027 20.249060 -26.492586 -7.891296 -78.653618 14.924736 8.350357 -10.605373 -7.682957 -14.388667 -27.487299 14.633111 -2.376618 -19.512445 -28.487509 6.091948 82.950493 8.622196 -12.735947 8.216869 -3.467763 14.647344 23.998096 1.085055 6.926570 -1.112231 0.233737 0.025920 1.730965 4.657624 2.854739 -1.338466 -4.659735 5.284770 -1.098681 -1.335509 0.664994 0.490208 0.679607 3.954273 -0.101292 2.619886 -2.354850 1.121777 -2.726296 -10.304761 -0.879927 -1.626279 -0.805013 -0.059895 
-0.106511 48.468536 0.088587 0.001257 -7.657138 -0.020429 -0.457672 7.850986 0.300274 -3.814008 0.263095 0.253440 3.796888 0.261352 -0.838247 14.369669 1.310278 -0.114725 0.004257 -0.078473 -0.107350 -9.839963 2.516958 0.039081 13.715253 3.459455 20.335180 -26.654638 -7.762748 -78.533951 15.060083 8.970316 -10.843253 -8.056210 -14.575058 -27.453785 14.557668 -2.520368 -19.723614 -28.707615 6.164722 83.370285 8.318762 -12.872584 8.131741 -3.680329 14.517966 23.868652 1.023021 7.022046 -1.105942 0.584737 -0.200795 1.588576 4.374655 2.926115 -1.170891 -4.721183 5.508642 -0.972252 -1.219472 0.564900 0.450375 0.746769 3.911068 -0.171137 2.497235 -2.268048 1.202876 -2.650821 -10.286198 -0.845788 -1.514998 -0.907908 -0.034240 
-0.114828 48.464870 0.063092 0.013367 -7.672289 -0.018092 -0.466033 7.879581 0.249549 -3.756698 0.254088 0.280447 3.749961 0.233337 -0.814086 14.264633 1.351062 -0.212964 0.071709 0.024410 -0.075922 -9.991431 2.435067 0.003264 13.651246 3.559313 20.378925 -26.582302 -7.755931 -78.764008 14.995259 9.079945 -10.707549 -8.016706 -14.789738 -27.494249 14.632843 -2.492537 -19.818424 -28.958635 6.296813 83.437416 8.380682 -12.810272 8.182052 -3.824811 14.268462 23.819920 0.952924 7.018515 -1.071934 0.748018 -0.434853 1.619646 4.148796 2.889943 -1.197813 -4.655954 5.672479 -0.913961 -1.235907 0.486421 0.422786 0.667010 3.903802 -0.178646 2.389236 -2.182970 1.178582 -2.325560 -10.183810 -0.865417 -1.481682 -0.815216 -0.076552 
-0.106745 48.468586 0.046081 0.008714 -7.645691 -0.016009 -0.567297 7.822104 0.299082 -3.754398 0.302705 0.278384 3.768149 0.238339 -0.853785 14.344539 1.356410 -0.234136 0.021624 0.038335 -0.033423 -10.012630 2.499908 -0.063729 13.621859 3.599686 20.378965 -26.667065 -7.825218 -78.804413 15.105803 9.264492 -10.716940 -8.061997 -14.873924 -27.612305 14.716133 -2.532579 -19.893896 -29.134792 6.370312 83.672523 8.460621 -12.889489 8.105999 -3.868756 14.317389 23.803024 0.935954 6.906568 -1.040811 0.750882 -0.441761 1.574722 4.261743 2.869034 -1.256912 -4.834154 5.700824 -0.810568 -1.141987 0.565787 0.428397 0.746205 3.955054 -0.233896 2.215818 -2.072774 1.154801 -2.231776 -10.177092 -0.818655 -1.424303 -0.762597 -0.083749 
-0.089342 48.466686 0.021742 0.007124 -7.612118 -0.019967 -0.548765 7.750742 0.322436 -3.757797 0.345368 0.249843 3.797079 0.237344 -0.800281 14.302743 1.383596 -0.243854 0.063154 0.002969 -0.064186 -10.047153 2.508796 -0.064581 13.575685 3.554073 20.350908 -26.687481 -7.851304 -78.821892 15.066669 9.268142 -10.748107 -7.974706 -14.971390 -27.673138 14.751864 -2.556710 -19.955545 -29.198339 6.378868 83.639229 8.490472 -12.876967 8.149865 -3.801963 14.352056 23.887054 0.896466 6.803038 -1.052310 0.775578 -0.521515 1.524720 4.301573 2.876810 -1.203865 -4.874502 5.750544 -0.828046 -1.170707 0.612321 0.452338 0.744911 3.985053 -0.214567 2.209198 -2.002132 1.126238 -2.203230 -10.147582 -0.810013 -1.417650 -0.775974 -0.058532 
-0.080847 48.490982 -0.008235 0.006499 -7.493175 -0.020968 -0.560007 7.610993 0.287526 -3.715194 0.336211 0.295984 3.787617 0.285331 -0.814914 14.402206 1.345458 -0.228007 0.003582 0.010741 -0.070941 -10.017013 2.512034 -0.121904 13.559186 3.456124 20.439213 -26.687321 -7.849356 -78.809067 15.015277 9.339845 -10.710515 -7.988107 -14.968982 -27.739161 14.721934 -2.641993 -19.896891 -29.236712 6.486176 83.582756 8.481067 -12.857799 8.226002 -3.723666 14.204177 23.992313 0.897192 6.671925 -0.999921 0.747433 -0.568011 1.503193 4.306576 2.906179 -1.261419 -4.867747 5.814092 -0.811592 -1.138574 0.545384 0.431176 0.660768 4.000563 -0.265805 2.198563 -1.990884 1.093501 -2.123770 -10.178946 -0.759306 -1.451268 -0.736561 -0.063376 
-0.070363 48.499973 -0.027234 0.010349 -7.505912 -0.019598 -0.562095 7.592517 0.303996 -3.735022 0.345360 0.289623 3.782886 0.229520 -0.805631 14.374272 1.401773 -0.254419 0.059884 0.025038 -0.097996 -9.982358 2.454777 -0.124841 13.537231 3.477661 20.411324 -26.750725 -7.868394 -78.825684 15.066717 9.437243 -10.774135 -7.946339 -15.056191 -27.705568 14.763966 -2.603607 -19.984911 -29.308012 6.552629 83.640961 8.443906 -12.906382 8.235569 -3.639616 14.160493 23.972820 0.825160 6.626882 -1.016585 0.806484 -0.543431 1.545967 4.324895 2.865230 -1.279191 -4.833617 5.859276 -0.844651 -1.169133 0.612222 0.413154 0.638431 4.083080 -0.261361 2.309169 -1.994148 1.112294 -2.123388 -10.154498 -0.767595 -1.428462 -0.745618 -0.050113 
-0.060918 48.517860 -0.035110 0.007281 -7.480536 -0.020041 -0.612839 7.556530 0.275594 -3.720062 0.335648 0.285083 3.794552 0.272399 -0.810665 14.415517 1.354485 -0.221916 0.060514 0.045813 -0.108076 -9.929406 2.485742 -0.099212 13.522518 3.478014 20.495205 -26.860868 -7.935379 -78.869911 15.109001 9.525218 -10.797896 -7.955163 -15.003725 -27.694571 14.741194 -2.607332 -19.991005 -29.265787 6.598409 83.632423 8.416639 -12.902657 8.284704 -3.609248 14.152009 24.039991 0.767424 6.606822 -1.039800 0.860300 -0.548427 1.544852 4.399675 2.854808 -1.312404 -4.874336 5.921794 -0.807609 -1.209276 0.592226 0.424411 0.617455 4.098193 -0.244882 2.383627 -2.023160 1.064482 -2.131138 -10.145006 -0.727695 -1.413221 -0.782387 -0.022110 
-0.061370 48.520752 -0.040311 0.008466 -7.520052 -0.018027 -0.628348 7.574927 0.268292 -3.730087 0.356824 0.284789 3.807947 0.272104 -0.789072 14.432935 1.380427 -0.215198 0.058721 0.032028 -0.114443 -9.879026 2.490763 -0.084101 13.510848 3.410397 20.491270 -26.873344 -7.903615 -78.845909 15.108984 9.531066 -10.793636 -7.929742 -15.025380 -27.650850 14.725136 -2.567005 -19.951939 -29.228909 6.612604 83.598061 8.397950 -12.880004 8.270048 -3.556513 14.193316 24.081306 0.786569 6.624852 -1.065596 0.838670 -0.568336 1.601337 4.424001 2.827433 -1.324394 -4.885162 5.980684 -0.840450 -1.213066 0.566304 0.425045 0.582959 4.086498 -0.193962 2.413946 -1.999914 1.008021 -2.122063 -10.203599 -0.713064 -1.455686 -0.756791 -0.022617 
